<svg width="32" height="32" viewBox="0 0 32 32" fill="none" xmlns="http://www.w3.org/2000/svg">
<path d="M6.99998 1.1001H3.41698C2.13998 1.1001 1.09998 2.1401 1.09998 3.4171V7.0001C1.09998 7.4971 1.50298 7.9001 1.99998 7.9001C2.49698 7.9001 2.89998 7.4971 2.89998 7.0001V3.4171C2.89998 3.1321 3.13198 2.9001 3.41698 2.9001H6.99998C7.49698 2.9001 7.89998 2.4971 7.89998 2.0001C7.89998 1.5031 7.49698 1.1001 6.99998 1.1001ZM6.99998 29.1001H3.41698C3.13198 29.1001 2.89998 28.8691 2.89998 28.5831V25.0001C2.89998 24.5031 2.49698 24.1001 1.99998 24.1001C1.50298 24.1001 1.09998 24.5031 1.09998 25.0001V28.5831C1.09998 29.8601 2.13998 30.9001 3.41698 30.9001H6.99998C7.49698 30.9001 7.89998 30.4971 7.89998 30.0001C7.89998 29.5031 7.49698 29.1001 6.99998 29.1001ZM28.583 1.1001H25C24.503 1.1001 24.1 1.5031 24.1 2.0001C24.1 2.4971 24.503 2.9001 25 2.9001H28.583C28.868 2.9001 29.1 3.1311 29.1 3.4171V7.0001C29.1 7.4971 29.503 7.9001 30 7.9001C30.497 7.9001 30.9 7.4971 30.9 7.0001V3.4171C30.9 2.1401 29.86 1.1001 28.583 1.1001ZM30 24.1001C29.503 24.1001 29.1 24.5031 29.1 25.0001V28.5831C29.1 28.8681 28.869 29.1001 28.583 29.1001H25C24.503 29.1001 24.1 29.5031 24.1 30.0001C24.1 30.4971 24.503 30.9001 25 30.9001H28.583C29.86 30.9001 30.9 29.8601 30.9 28.5831V25.0001C30.9 24.5031 30.497 24.1001 30 24.1001Z" fill="#FF6A3D"/>
<path d="M19.335 17.9481C20.839 16.8931 21.827 15.1491 21.827 13.1771C21.827 9.9641 19.213 7.3501 16 7.3501C12.787 7.3501 10.173 9.9641 10.173 13.1771C10.173 15.1491 11.161 16.8931 12.665 17.9481C11.038 18.6921 9.586 19.9711 8.473 21.7091C8.094 22.3001 8.068 23.0491 8.404 23.6631C8.737 24.2721 9.375 24.6501 10.069 24.6501H21.932C22.626 24.6501 23.264 24.2721 23.597 23.6631C23.933 23.0491 23.907 22.3001 23.528 21.7091C22.414 19.9711 20.962 18.6911 19.335 17.9481ZM16 9.1501C18.221 9.1501 20.026 10.9561 20.026 13.1761C20.026 15.3961 18.221 17.2031 16 17.2031C13.779 17.2031 11.974 15.3971 11.974 13.1771C11.974 10.9571 13.779 9.1501 16 9.1501ZM22.018 22.8001C21.99 22.8501 21.953 22.8501 21.932 22.8501L9.982 22.8001C9.95 22.7391 9.978 22.6951 9.988 22.6801C11.484 20.3451 13.676 19.0061 16 19.0061C18.324 19.0061 20.516 20.3451 22.012 22.6801C22.021 22.6941 22.05 22.7391 22.018 22.8001Z" fill="#FF6A3D"/>
</svg>
