<svg width="472" height="512" viewBox="0 0 472 512" fill="none" xmlns="http://www.w3.org/2000/svg">
<path d="M185.371 478.291C184.424 481.878 181.185 484.25 177.642 484.25C176.966 484.25 176.279 484.164 175.594 483.982C126.933 471.13 84.432 443.61 52.688 404.395C13.05 355.431 -5.148 293.961 1.447 231.31C8.042 168.659 38.64 112.326 87.605 72.688C119.945 46.508 158.053 29.548 198.718 23.092L184.151 14.993C180.29 12.846 178.9 7.97401 181.047 4.11301C183.195 0.252009 188.066 -1.13799 191.927 1.00901L228.665 21.437C230.814 22.632 232.295 24.75 232.679 27.179C233.064 29.608 232.309 32.078 230.634 33.879L201.996 64.65C200.42 66.343 198.281 67.2 196.138 67.2C194.187 67.2 192.231 66.49 190.69 65.056C187.456 62.045 187.274 56.984 190.284 53.749L204.574 38.394C165.424 43.996 128.702 60.004 97.672 85.123C52.029 122.072 23.507 174.584 17.359 232.984C11.212 291.385 28.174 348.685 65.124 394.329C94.715 430.883 134.328 456.535 179.681 468.514C183.951 469.642 186.5 474.02 185.371 478.291ZM419.313 107.605C387.565 68.385 345.064 40.865 296.405 28.017C292.132 26.89 287.756 29.438 286.628 33.71C285.501 37.981 288.049 42.359 292.321 43.487C337.671 55.46 377.283 81.112 406.878 117.671C443.827 163.315 460.79 220.613 454.643 279.015C448.495 337.416 419.972 389.928 374.33 426.877C343.316 451.984 306.568 468.01 267.422 473.612L281.718 458.25C284.728 455.016 284.546 449.953 281.312 446.943C278.079 443.932 273.016 444.115 270.005 447.349L241.368 478.12C239.693 479.921 238.938 482.391 239.323 484.82C239.707 487.25 241.187 489.367 243.337 490.562L280.074 510.99C281.305 511.675 282.639 511.999 283.955 511.999C286.765 511.999 289.491 510.516 290.954 507.886C293.1 504.025 291.711 499.154 287.85 497.006L273.277 488.903C313.939 482.446 352.074 465.478 384.397 439.311C433.362 399.673 463.96 343.34 470.555 280.688C477.148 218.039 458.95 156.569 419.313 107.605ZM239.218 368.262L225.884 381.597C223.545 383.938 220.005 384.597 216.98 383.252L205.411 378.113C197.982 382.577 190.01 385.883 181.616 387.978L177.073 399.781C175.885 402.869 172.917 404.907 169.607 404.907H150.749C147.439 404.907 144.472 402.869 143.283 399.781L138.738 387.974C130.35 385.878 122.38 382.574 114.95 378.111L103.377 383.252C100.354 384.595 96.814 383.938 94.474 381.598L81.139 368.264C78.798 365.924 78.141 362.384 79.484 359.36L84.623 347.792C80.16 340.364 76.854 332.392 74.759 323.996L62.955 319.453C59.866 318.265 57.828 315.297 57.828 311.987V293.13C57.828 289.82 59.866 286.853 62.954 285.664L74.761 281.119C76.856 272.73 80.16 264.759 84.624 257.328L79.484 245.757C78.141 242.733 78.798 239.194 81.138 236.854L94.472 223.519C96.812 221.177 100.352 220.52 103.376 221.864L114.95 227.005C122.38 222.542 130.35 219.237 138.738 217.143L143.283 205.335C144.471 202.247 147.439 200.209 150.749 200.209H169.606C172.916 200.209 175.883 202.247 177.072 205.335L181.618 217.143C190.005 219.238 197.976 222.542 205.406 227.005L216.979 221.864C220.005 220.522 223.542 221.178 225.883 223.518L239.218 236.853C241.558 239.194 242.215 242.733 240.872 245.757L235.733 257.324C240.197 264.753 243.502 272.725 245.597 281.12L257.4 285.663C260.489 286.851 262.527 289.819 262.527 293.129V311.987C262.527 315.297 260.489 318.264 257.401 319.453L245.594 323.998C243.498 332.386 240.194 340.356 235.731 347.786L240.872 359.359C242.215 362.383 241.558 365.922 239.218 368.262ZM235.848 310.604L246.528 306.493V298.621L235.852 294.512C233.285 293.525 231.405 291.287 230.875 288.588C229.031 279.205 225.387 270.412 220.042 262.453C218.508 260.17 218.255 257.26 219.371 254.746L224.019 244.281L218.453 238.715L207.983 243.365C205.469 244.48 202.559 244.228 200.277 242.695C192.312 237.348 183.522 233.704 174.149 231.863C171.45 231.334 169.212 229.454 168.224 226.887L164.113 216.206H156.241L152.13 226.887C151.142 229.453 148.904 231.333 146.205 231.863C136.832 233.704 128.042 237.348 120.077 242.695C117.795 244.227 114.883 244.479 112.371 243.365L101.901 238.715L96.335 244.281L100.984 254.75C102.1 257.264 101.847 260.174 100.314 262.457C94.966 270.42 91.322 279.211 89.481 288.586C88.952 291.285 87.072 293.523 84.505 294.511L73.825 298.622V306.493L84.501 310.602C87.068 311.589 88.947 313.827 89.478 316.525C91.323 325.91 94.967 334.703 100.312 342.66C101.846 344.943 102.099 347.854 100.983 350.368L96.335 360.834L101.901 366.399L112.371 361.749C114.885 360.633 117.795 360.887 120.077 362.419C128.041 367.766 136.832 371.41 146.206 373.252C148.905 373.782 151.142 375.661 152.13 378.228L156.241 388.908H164.113L168.222 378.232C169.209 375.666 171.447 373.786 174.146 373.256C183.528 371.413 192.32 367.768 200.279 362.422C202.561 360.888 205.473 360.635 207.987 361.751L218.453 366.399L224.019 360.833L219.369 350.363C218.253 347.85 218.506 344.94 220.039 342.657C225.386 334.693 229.03 325.902 230.872 316.528C231.402 313.829 233.281 311.593 235.848 310.604ZM207.939 302.558C207.939 328.894 186.512 350.32 160.176 350.32C133.84 350.32 112.414 328.894 112.414 302.558C112.414 276.222 133.84 254.795 160.176 254.795C186.512 254.795 207.939 276.222 207.939 302.558ZM191.939 302.558C191.939 285.044 177.69 270.795 160.176 270.795C142.662 270.795 128.414 285.044 128.414 302.558C128.414 320.072 142.662 334.32 160.176 334.32C177.69 334.32 191.939 320.071 191.939 302.558ZM232.175 132.004C233.685 129.059 236.852 127.344 240.142 127.696L248.391 128.574C252.329 124.211 256.798 120.413 261.747 117.223L262.208 108.933C262.391 105.628 264.59 102.779 267.739 101.763L281.025 97.478C284.177 96.462 287.626 97.49 289.705 100.065L294.924 106.526C300.805 106.223 306.652 106.695 312.394 107.933L318.578 102.401C321.044 100.194 324.614 99.735 327.559 101.243L339.984 107.608C342.929 109.117 344.641 112.284 344.292 115.574L343.414 123.825C347.775 127.762 351.573 132.231 354.763 137.18L363.056 137.641C366.36 137.825 369.209 140.023 370.225 143.172L374.51 156.458C375.527 159.608 374.498 163.059 371.923 165.138L365.465 170.354C365.769 176.233 365.297 182.082 364.057 187.829L369.587 194.009C371.793 196.476 372.254 200.046 370.745 202.991L364.38 215.417C362.87 218.364 359.692 220.07 356.413 219.725L348.163 218.847C344.226 223.206 339.757 227.005 334.808 230.195L334.347 238.487C334.164 241.791 331.965 244.641 328.816 245.657L315.53 249.943C314.722 250.204 313.894 250.33 313.075 250.33C310.7 250.331 308.396 249.271 306.85 247.356L301.634 240.898C295.754 241.203 289.905 240.73 284.159 239.489L277.978 245.02C275.511 247.226 271.941 247.686 268.996 246.178L256.571 239.813C253.626 238.304 251.914 235.137 252.263 231.847L253.141 223.596C248.782 219.659 244.984 215.19 241.792 210.241L233.5 209.78C230.195 209.597 227.346 207.398 226.33 204.249L222.045 190.963C221.028 187.813 222.057 184.362 224.632 182.283L231.09 177.067C230.786 171.187 231.258 165.338 232.499 159.592L226.968 153.411C224.761 150.944 224.301 147.374 225.81 144.429L232.175 132.004ZM238.958 191.278L239.871 194.108L246.914 194.5C249.659 194.652 252.134 196.203 253.467 198.607C256.778 204.578 261.161 209.737 266.496 213.941C268.655 215.643 269.79 218.336 269.499 221.07L268.754 228.077L271.401 229.432L276.649 224.736C278.699 222.904 281.547 222.249 284.191 223.008C290.728 224.885 297.477 225.432 304.248 224.625C304.563 224.588 304.879 224.569 305.191 224.569C307.59 224.569 309.884 225.649 311.414 227.543L315.844 233.028L318.675 232.114L319.067 225.071C319.219 222.325 320.771 219.85 323.176 218.517C329.145 215.208 334.303 210.826 338.508 205.49C340.209 203.33 342.9 202.195 345.638 202.486L352.644 203.232L354 200.584L349.304 195.337C347.47 193.287 346.818 190.44 347.576 187.796C349.451 181.258 349.995 174.51 349.192 167.738C348.868 165.007 349.97 162.3 352.11 160.572L357.595 156.141L356.682 153.31L349.638 152.918C346.893 152.766 344.418 151.214 343.085 148.81C339.777 142.842 335.394 137.684 330.057 133.478C327.898 131.776 326.763 129.083 327.054 126.349L327.799 119.342L325.152 117.986L319.901 122.684C317.853 124.516 315.005 125.173 312.361 124.412C305.827 122.537 299.077 121.994 292.305 122.796C289.576 123.122 286.869 122.019 285.141 119.878L280.708 114.391L277.878 115.304L277.486 122.346C277.334 125.092 275.782 127.568 273.376 128.901C267.409 132.207 262.251 136.589 258.044 141.928C256.342 144.088 253.654 145.22 250.914 144.932L243.909 144.187L242.554 146.834L247.25 152.082C249.084 154.132 249.736 156.98 248.978 159.624C247.102 166.16 246.558 172.908 247.361 179.681C247.685 182.412 246.583 185.119 244.443 186.847L238.958 191.278ZM262.648 185.2C259.579 175.683 260.4 165.541 264.959 156.641C274.369 138.27 296.97 130.98 315.346 140.392C324.245 144.952 330.837 152.703 333.907 162.219C336.975 171.737 336.155 181.878 331.595 190.778C327.036 199.677 319.284 206.269 309.768 209.339C305.985 210.559 302.101 211.165 298.238 211.165C292.383 211.165 286.572 209.775 281.21 207.028C272.31 202.47 265.718 194.717 262.648 185.2ZM277.876 180.289C279.633 185.739 283.407 190.178 288.504 192.788C293.6 195.397 299.405 195.871 304.857 194.111C310.306 192.354 314.745 188.58 317.355 183.483C319.966 178.387 320.436 172.58 318.679 167.13C316.921 161.681 313.147 157.242 308.051 154.632C304.932 153.034 301.598 152.277 298.313 152.277C290.518 152.277 282.991 156.536 279.2 163.936C276.589 169.032 276.118 174.84 277.876 180.289ZM390.112 291.807L387.437 297.829C389.797 301.995 391.625 306.405 392.902 311.013L399.047 313.378C402.136 314.566 404.174 317.534 404.174 320.844V332.871C404.174 336.181 402.137 339.148 399.048 340.337L392.901 342.703C391.624 347.307 389.797 351.716 387.436 355.882L390.113 361.908C391.456 364.932 390.799 368.471 388.459 370.811L379.955 379.316C377.615 381.658 374.074 382.313 371.051 380.971L365.028 378.295C360.861 380.655 356.452 382.483 351.845 383.761L349.48 389.906C348.292 392.994 345.324 395.032 342.014 395.032H329.987C326.677 395.032 323.71 392.995 322.521 389.906L320.155 383.759C315.551 382.482 311.142 380.655 306.975 378.295L300.95 380.972C297.927 382.314 294.387 381.658 292.046 379.318L283.541 370.813C281.201 368.472 280.544 364.933 281.887 361.909L284.562 355.887C282.203 351.721 280.374 347.311 279.097 342.703L272.952 340.338C269.863 339.15 267.825 336.182 267.825 332.872V320.845C267.825 317.535 269.863 314.568 272.952 313.379L279.098 311.013C280.374 306.409 282.202 301.999 284.562 297.833L281.886 291.808C280.543 288.784 281.2 285.245 283.54 282.904L292.044 274.4C294.383 272.059 297.923 271.401 300.948 272.746L306.974 275.422C311.14 273.063 315.549 271.235 320.154 269.958L322.52 263.811C323.708 260.722 326.676 258.685 329.986 258.685H342.012C345.322 258.685 348.289 260.722 349.478 263.811L351.844 269.958C356.448 271.235 360.857 273.062 365.023 275.422L371.049 272.746C374.074 271.403 377.613 272.06 379.952 274.4L388.457 282.904C390.798 285.242 391.455 288.782 390.112 291.807ZM383.222 324.431C380.655 323.444 378.775 321.205 378.245 318.507C377.144 312.903 374.967 307.651 371.773 302.896C370.24 300.613 369.987 297.703 371.103 295.189L373.259 290.334L372.523 289.597L367.664 291.755C365.149 292.871 362.241 292.617 359.959 291.086C355.199 287.892 349.948 285.714 344.351 284.614C341.653 284.084 339.415 282.205 338.427 279.638L336.52 274.683H335.478L333.571 279.638C332.583 282.204 330.345 284.083 327.647 284.614C322.048 285.714 316.796 287.891 312.038 291.086C309.756 292.616 306.847 292.87 304.333 291.755L299.475 289.598L298.739 290.334L300.896 295.192C302.012 297.706 301.759 300.616 300.226 302.899C297.032 307.656 294.855 312.907 293.756 318.505C293.226 321.204 291.346 323.442 288.778 324.43L283.824 326.337V327.378L288.776 329.284C291.343 330.271 293.223 332.51 293.753 335.208C294.854 340.812 297.031 346.064 300.225 350.818C301.759 353.101 302.012 356.012 300.896 358.526L298.739 363.382L299.475 364.118L304.333 361.96C306.846 360.845 309.755 361.097 312.038 362.629C316.799 365.823 322.05 368.001 327.647 369.101C330.345 369.631 332.583 371.51 333.571 374.077L335.478 379.032H336.52L338.426 374.08C339.413 371.514 341.652 369.634 344.35 369.104C349.952 368.003 355.204 365.826 359.961 362.631C362.243 361.099 365.155 360.845 367.668 361.961L372.523 364.118L373.259 363.382L371.101 358.523C369.985 356.01 370.238 353.1 371.771 350.817C374.965 346.058 377.143 340.807 378.243 335.21C378.773 332.512 380.652 330.274 383.219 329.286L388.174 327.379V326.337L383.222 324.431ZM369.358 326.857C369.358 345.252 354.393 360.216 335.999 360.216C317.605 360.216 302.639 345.251 302.639 326.857C302.639 308.463 317.605 293.498 335.999 293.498C354.393 293.498 369.358 308.463 369.358 326.857ZM353.358 326.857C353.358 317.285 345.571 309.498 335.999 309.498C326.427 309.498 318.639 317.285 318.639 326.857C318.639 336.429 326.427 344.216 335.999 344.216C345.571 344.216 353.358 336.43 353.358 326.857Z" fill="#FF6A3D"/>
</svg>
