<svg width="84" height="84" viewBox="0 0 84 84" fill="none" xmlns="http://www.w3.org/2000/svg">
<path fill-rule="evenodd" clip-rule="evenodd" d="M5.99986 0C2.7105 0 -6.10352e-05 2.71056 -6.10352e-05 5.99992V77.999C-6.10352e-05 81.2884 2.7105 83.9989 5.99986 83.9989H61.9992C65.2885 83.9989 67.9991 81.2884 67.9991 77.999V50.8275L83.4149 35.4117C83.7892 35.0367 83.9995 34.5285 83.9995 33.9986C83.9995 33.4687 83.7892 32.9605 83.4149 32.5855L75.4131 24.5837C75.2235 24.3946 74.9979 24.2454 74.7496 24.1451C74.5014 24.0448 74.2355 23.9953 73.9678 23.9997C73.4492 24.008 72.9541 24.2174 72.5869 24.5837L67.9991 29.1715V5.99992C67.9991 2.71056 65.2885 0 61.9992 0H5.99986ZM5.99986 3.99995H61.9992C63.1417 3.99995 63.9991 4.85735 63.9991 5.99992V33.1715L40.5873 56.5833C40.366 56.8021 40.1988 57.0697 40.099 57.3645L36.105 69.3683C35.9892 69.7199 35.9733 70.0968 36.059 70.4569C36.1447 70.8171 36.3287 71.1463 36.5905 71.4081C36.8522 71.6699 37.1815 71.8539 37.5417 71.9396C37.9018 72.0253 38.2787 72.0094 38.6303 71.8936L50.6341 67.8995C50.9289 67.7998 51.1964 67.6326 51.4153 67.4113L63.9991 54.8274V77.999C63.9991 79.1416 63.1417 79.999 61.9992 79.999H5.99986C4.85728 79.999 3.99989 79.1416 3.99989 77.999V5.99992C3.99989 4.85735 4.85728 3.99995 5.99986 3.99995ZM45.9681 11.9959C45.4484 12.0063 44.9532 12.2185 44.5873 12.5877L36.5854 20.5818C36.2096 20.9568 35.9982 21.4658 35.9976 21.9967C35.9971 22.5276 36.2075 23.037 36.5825 23.4128C36.9575 23.7886 37.4665 24 37.9974 24.0006C38.5283 24.0011 39.0377 23.7908 39.4135 23.4157L43.9974 18.8318V28.0016C43.9974 32.4681 40.4699 36.0035 36.0034 36.0035H28.0015C21.3882 36.0035 15.9978 41.3841 15.9978 47.9974V60.3547C13.6785 61.1875 11.9959 63.4137 11.9959 66.0031C11.9959 69.2931 14.7078 71.9952 17.9978 71.9952C21.2877 71.9952 23.9996 69.2931 23.9996 66.0031C23.9996 63.4137 22.317 61.1875 19.9977 60.3547V47.9974C19.9977 43.5309 23.535 39.9956 28.0015 39.9956H36.0034C42.6167 39.9956 47.9974 34.6149 47.9974 28.0016V18.8318L52.5813 23.4157C52.9571 23.7918 53.4669 24.0032 53.9986 24.0033C54.5302 24.0035 55.0402 23.7925 55.4162 23.4167C55.7923 23.0409 56.0037 22.5311 56.0039 21.9994C56.004 21.4678 55.793 20.9578 55.4172 20.5818L47.4154 12.5877C47.2262 12.397 47.0006 12.2462 46.752 12.1446C46.5033 12.0429 46.2367 11.9923 45.9681 11.9959ZM17.9763 15.9822C17.5789 15.9835 17.1909 16.1031 16.8618 16.3258C16.5327 16.5484 16.2774 16.8641 16.1284 17.2325C15.9794 17.6008 15.9435 18.0052 16.0253 18.3941C16.1071 18.7829 16.3029 19.1386 16.5876 19.4158L19.1716 21.9997L16.5876 24.5837C16.2118 24.9587 16.0004 25.4677 15.9998 25.9986C15.9993 26.5295 16.2097 27.0389 16.5847 27.4147C16.9597 27.7905 17.4687 28.0019 17.9996 28.0025C18.5305 28.003 19.0399 27.7927 19.4157 27.4176L21.9997 24.8337L24.5836 27.4176C24.7682 27.6104 24.9894 27.7643 25.2343 27.8704C25.4791 27.9765 25.7427 28.0326 26.0096 28.0355C26.2764 28.0384 26.5411 27.988 26.7882 27.8872C27.0353 27.7864 27.2598 27.6373 27.4485 27.4486C27.6372 27.2599 27.7863 27.0354 27.8871 26.7883C27.9879 26.5412 28.0383 26.2765 28.0354 26.0096C28.0326 25.7428 27.9764 25.4792 27.8703 25.2343C27.7642 24.9895 27.6103 24.7683 27.4176 24.5837L24.8336 21.9997L27.4176 19.4158C27.7067 19.1347 27.9042 18.7729 27.984 18.3776C28.0639 17.9824 28.0224 17.5723 27.8651 17.201C27.7078 16.8298 27.4419 16.5147 27.1024 16.2972C26.7629 16.0797 26.3655 15.9699 25.9625 15.9822C25.4415 15.9967 24.9468 16.2139 24.5836 16.5877L21.9997 19.1716L19.4157 16.5877C19.2286 16.3954 19.0048 16.2427 18.7575 16.1387C18.5102 16.0347 18.2445 15.9815 17.9763 15.9822ZM73.9971 28.8278L79.1708 34.0015L76.0009 37.1714L70.8272 31.9976L73.9971 28.8278ZM67.9991 34.8257L73.1729 39.9995L50.0013 63.1711L44.8275 57.9973L67.9991 34.8257ZM42.8744 61.6965L46.3021 65.1242L41.1615 66.8371L42.8744 61.6965ZM17.9978 64.0012C19.126 64.0012 19.9977 64.8748 19.9977 66.0031C19.9977 67.1313 19.126 68.0031 17.9978 68.0031C16.8695 68.0031 15.9978 67.1313 15.9978 66.0031C15.9978 64.8748 16.8695 64.0012 17.9978 64.0012Z" fill="#FF6A3D"/>
</svg>
